<svg width="32" height="32" viewBox="0 0 32 32" fill="none" xmlns="http://www.w3.org/2000/svg">
<path d="M27.9994 15.9999C28.7354 15.9999 29.3394 15.4012 29.266 14.6692C28.9586 11.6081 27.6021 8.7475 25.4265 6.57232C23.2508 4.39715 20.3899 3.04127 17.3287 2.73456C16.5954 2.66123 15.998 3.26523 15.998 4.00123V14.6679C15.998 15.0215 16.1385 15.3607 16.3886 15.6107C16.6386 15.8608 16.9778 16.0012 17.3314 16.0012L27.9994 15.9999Z" stroke="currentColor" strokeWidth="1.75" strokeLinecap="round" strokeLinejoin="round"/>
<path d="M28.2799 21.1868C27.4316 23.1927 26.1049 24.9604 24.4157 26.3352C22.7265 27.71 20.7262 28.65 18.5898 29.0731C16.4534 29.4963 14.2458 29.3896 12.1601 28.7625C10.0744 28.1354 8.17405 27.0069 6.62525 25.4756C5.07644 23.9444 3.92631 22.0571 3.2754 19.9787C2.62449 17.9003 2.49264 15.6941 2.89135 13.5529C3.29007 11.4118 4.20721 9.40094 5.56261 7.69614C6.91801 5.99135 8.6704 4.64453 10.6666 3.77344" stroke="currentColor" strokeWidth="1.75" strokeLinecap="round" strokeLinejoin="round"/>
</svg>
