<svg width="26" height="18" viewBox="0 0 26 18" fill="none" xmlns="http://www.w3.org/2000/svg">
<g clipPath="url(#clip0_10261_4501)">
<path d="M0.0429688 0.0449219H25.9566V17.9554H0.0429688V0.0449219Z" fill="#DE2910"/>
<path d="M4.363 1.83587L5.8862 6.69587L1.89844 3.6922H6.82755L2.83988 6.69587L4.363 1.83587ZM7.94123 2.29661L9.01993 1.01172L8.87568 2.70855L8.03038 1.24796L9.54244 1.91449L7.94123 2.29661ZM9.55444 3.75354L11.0295 3.00336L10.2615 4.50918L10.0291 2.82291L11.1731 4.04557L9.55444 3.75354ZM9.57898 6.06748L11.2209 6.00641L9.92717 7.05632L10.3786 5.41849L10.9419 7.01861L9.57898 6.06748ZM8.0074 7.54509L9.54477 8.14608L7.96032 8.5967L8.98668 7.26658L8.91049 8.96808L8.0074 7.54509Z" fill="#FFDE00"/>
</g>
<defs>
<clipPath id="clip0_10261_4501">
<rect width="26" height="18" fill="white"/>
</clipPath>
</defs>
</svg>
