<svg width="34" height="26" viewBox="0 0 34 26" fill="none" xmlns="http://www.w3.org/2000/svg">
<g filter="url(#filter0_dd_5262_373119)">
<g clipPath="url(#clip0_5262_373119)">
<rect x="4" y="2" width="26" height="18" fill="white"/>
<path d="M30 2H4V20H30V2Z" fill="#003399"/>
<path d="M17 4L16.7024 4.95106L17.1603 5.10557L17 4Z" fill="#FFCC00"/>
<path d="M17 4L17.2976 4.95106L16.8397 5.10557L17 4Z" fill="#FFCC00"/>
<path d="M17.8906 4.69141L16.9553 4.79171L16.9829 5.19141L17.8906 4.69141Z" fill="#FFCC00"/>
<path d="M17.918 4.58203L17.2331 5.27776L16.8559 4.98119L17.918 4.58203Z" fill="#FFCC00"/>
<path d="M17.5703 5.81055L17.2828 4.85624L16.8148 5.00751L17.5703 5.81055Z" fill="#FFCC00"/>
<path d="M17.5781 5.80859L16.7915 5.23469L17.0669 4.8163L17.5781 5.80859Z" fill="#FFCC00"/>
<path d="M16.1133 4.69141L17.0486 4.79171L17.021 5.19141L16.1133 4.69141Z" fill="#FFCC00"/>
<path d="M16.0859 4.58203L16.7708 5.27776L17.148 4.98119L16.0859 4.58203Z" fill="#FFCC00"/>
<path d="M16.4336 5.81055L16.7211 4.85624L17.1891 5.00751L16.4336 5.81055Z" fill="#FFCC00"/>
<path d="M16.4258 5.80859L17.2124 5.23469L16.937 4.8163L16.4258 5.80859Z" fill="#FFCC00"/>
<path d="M17 16L16.7024 16.9511L17.1603 17.1056L17 16Z" fill="#FFCC00"/>
<path d="M17 16L17.2976 16.9511L16.8397 17.1056L17 16Z" fill="#FFCC00"/>
<path d="M17.8906 16.6914L16.9553 16.7917L16.9829 17.1914L17.8906 16.6914Z" fill="#FFCC00"/>
<path d="M17.918 16.582L17.2331 17.2778L16.8559 16.9812L17.918 16.582Z" fill="#FFCC00"/>
<path d="M17.5703 17.8105L17.2828 16.8562L16.8148 17.0075L17.5703 17.8105Z" fill="#FFCC00"/>
<path d="M17.5781 17.8086L16.7915 17.2347L17.0669 16.8163L17.5781 17.8086Z" fill="#FFCC00"/>
<path d="M16.1133 16.6914L17.0486 16.7917L17.021 17.1914L16.1133 16.6914Z" fill="#FFCC00"/>
<path d="M16.0859 16.582L16.7708 17.2778L17.148 16.9812L16.0859 16.582Z" fill="#FFCC00"/>
<path d="M16.4336 17.8105L16.7211 16.8562L17.1891 17.0075L16.4336 17.8105Z" fill="#FFCC00"/>
<path d="M16.4258 17.8086L17.2124 17.2347L16.937 16.8163L16.4258 17.8086Z" fill="#FFCC00"/>
<path d="M11.2227 10L10.9251 10.9511L11.383 11.1056L11.2227 10Z" fill="#FFCC00"/>
<path d="M11.2227 10L11.5202 10.9511L11.0623 11.1056L11.2227 10Z" fill="#FFCC00"/>
<path d="M12.1133 10.6914L11.178 10.7917L11.2056 11.1914L12.1133 10.6914Z" fill="#FFCC00"/>
<path d="M12.1406 10.582L11.4558 11.2778L11.0786 10.9812L12.1406 10.582Z" fill="#FFCC00"/>
<path d="M11.793 11.8105L11.5055 10.8562L11.0375 11.0075L11.793 11.8105Z" fill="#FFCC00"/>
<path d="M11.8008 11.8086L11.0141 11.2347L11.2895 10.8163L11.8008 11.8086Z" fill="#FFCC00"/>
<path d="M10.3359 10.6914L11.2713 10.7917L11.2436 11.1914L10.3359 10.6914Z" fill="#FFCC00"/>
<path d="M10.3086 10.582L10.9934 11.2778L11.3707 10.9812L10.3086 10.582Z" fill="#FFCC00"/>
<path d="M10.6562 11.8105L10.9438 10.8562L11.4117 11.0075L10.6562 11.8105Z" fill="#FFCC00"/>
<path d="M10.6484 11.8086L11.4351 11.2347L11.1597 10.8163L10.6484 11.8086Z" fill="#FFCC00"/>
<path d="M13.5391 6.61133L14.3264 6.03854L14.0518 5.61903L13.5391 6.61133Z" fill="#FFCC00"/>
<path d="M13.5469 6.61523L13.8333 5.66029L14.3024 5.8109L13.5469 6.61523Z" fill="#FFCC00"/>
<path d="M13.1953 5.49414L13.9779 6.08231L14.2574 5.67819L13.1953 5.49414Z" fill="#FFCC00"/>
<path d="M13.1953 5.50781L14.1479 5.4931L14.1583 5.97838L13.1953 5.50781Z" fill="#FFCC00"/>
<path d="M14.1094 4.80273L13.8141 5.75159L14.2743 5.9083L14.1094 4.80273Z" fill="#FFCC00"/>
<path d="M14.1445 4.80273L14.4107 5.77801L13.9213 5.9083L14.1445 4.80273Z" fill="#FFCC00"/>
<path d="M14.6758 6.61328L13.8981 6.01708L14.1825 5.62099L14.6758 6.61328Z" fill="#FFCC00"/>
<path d="M14.6758 6.63281L14.3989 5.66336L13.9203 5.79947L14.6758 6.63281Z" fill="#FFCC00"/>
<path d="M15.0273 5.51758L14.2295 6.08206L13.9653 5.65424L15.0273 5.51758Z" fill="#FFCC00"/>
<path d="M15.0273 5.51367L14.0724 5.49361L14.0644 5.97355L15.0273 5.51367Z" fill="#FFCC00"/>
<path d="M12.5664 8.8125L12.2799 7.85755L11.8109 8.00817L12.5664 8.8125Z" fill="#FFCC00"/>
<path d="M12.5742 8.80859L11.7868 8.23581L12.0615 7.8163L12.5742 8.80859Z" fill="#FFCC00"/>
<path d="M11.4336 8.80664L12.2113 8.21044L11.9269 7.81435L11.4336 8.80664Z" fill="#FFCC00"/>
<path d="M11.4336 8.82617L11.7105 7.85672L12.1891 7.99283L11.4336 8.82617Z" fill="#FFCC00"/>
<path d="M11.082 7.71289L11.8799 8.27737L12.1441 7.84955L11.082 7.71289Z" fill="#FFCC00"/>
<path d="M11.082 7.70898L12.037 7.68892L12.045 8.16886L11.082 7.70898Z" fill="#FFCC00"/>
<path d="M12.9141 7.68945L12.1315 8.27763L11.852 7.87351L12.9141 7.68945Z" fill="#FFCC00"/>
<path d="M12.9141 7.70312L11.9615 7.68841L11.9511 8.17369L12.9141 7.70312Z" fill="#FFCC00"/>
<path d="M12 6.99805L12.2953 7.94691L11.8351 8.10361L12 6.99805Z" fill="#FFCC00"/>
<path d="M11.9648 6.99805L11.6987 7.97333L12.1881 8.10361L11.9648 6.99805Z" fill="#FFCC00"/>
<path d="M12.8789 13.6895L11.95 13.7492L11.984 14.1895L12.8789 13.6895Z" fill="#FFCC00"/>
<path d="M12.9102 13.5547L12.2889 14.277L11.8481 14.007L12.9102 13.5547Z" fill="#FFCC00"/>
<path d="M12.5625 14.6562L12.1257 13.857L11.807 14.1633L12.5625 14.6562Z" fill="#FFCC00"/>
<path d="M12.8438 14.8066L11.8627 14.5261L11.7817 13.8143L12.8438 14.8066Z" fill="#FFCC00"/>
<path d="M11.8242 14.8086L12.2094 14.0352L11.5324 13.8163L11.8242 14.8086Z" fill="#FFCC00"/>
<path d="M11.7656 14.9629L11.4336 13.9187L11.8571 13.8573L11.7656 14.9629Z" fill="#FFCC00"/>
<path d="M11.7461 12.998L12.2929 13.7188L12.0842 14.1036L11.7461 12.998Z" fill="#FFCC00"/>
<path d="M11.6992 13.1113L12.0539 14.1036L12.4547 13.9903L11.6992 13.1113Z" fill="#FFCC00"/>
<path d="M11.082 13.7871L11.9185 13.6882L12.045 14.0894L11.082 13.7871Z" fill="#FFCC00"/>
<path d="M11.3203 14.2754L12.143 14.239L11.9037 13.2831L11.3203 14.2754Z" fill="#FFCC00"/>
<path d="M14.9961 15.8848L14.0672 15.9445L14.1012 16.3848L14.9961 15.8848Z" fill="#FFCC00"/>
<path d="M15.0273 15.75L14.4061 16.4723L13.9653 16.2023L15.0273 15.75Z" fill="#FFCC00"/>
<path d="M14.6797 16.8516L14.2429 16.0523L13.9242 16.3586L14.6797 16.8516Z" fill="#FFCC00"/>
<path d="M14.9609 17.002L13.9799 16.7214L13.8989 16.0097L14.9609 17.002Z" fill="#FFCC00"/>
<path d="M13.9414 17.0039L14.3265 16.2306L13.6496 16.0116L13.9414 17.0039Z" fill="#FFCC00"/>
<path d="M13.8828 17.1582L13.5508 16.1141L13.9743 16.0526L13.8828 17.1582Z" fill="#FFCC00"/>
<path d="M13.8633 15.1934L14.4101 15.9141L14.2014 16.2989L13.8633 15.1934Z" fill="#FFCC00"/>
<path d="M13.8164 15.3066L14.1711 16.2989L14.5719 16.1856L13.8164 15.3066Z" fill="#FFCC00"/>
<path d="M13.1992 15.9824L14.0357 15.8836L14.1622 16.2847L13.1992 15.9824Z" fill="#FFCC00"/>
<path d="M13.4375 16.4707L14.2602 16.4343L14.0209 15.4784L13.4375 16.4707Z" fill="#FFCC00"/>
<path d="M22.7812 10L23.0788 10.9511L22.6209 11.1056L22.7812 10Z" fill="#FFCC00"/>
<path d="M22.7812 10L22.4837 10.9511L22.9416 11.1056L22.7812 10Z" fill="#FFCC00"/>
<path d="M21.8906 10.6914L22.8259 10.7917L22.7983 11.1914L21.8906 10.6914Z" fill="#FFCC00"/>
<path d="M21.8633 10.582L22.5481 11.2778L22.9253 10.9812L21.8633 10.582Z" fill="#FFCC00"/>
<path d="M22.2109 11.8105L22.4984 10.8562L22.9664 11.0075L22.2109 11.8105Z" fill="#FFCC00"/>
<path d="M22.2031 11.8086L22.9898 11.2347L22.7144 10.8163L22.2031 11.8086Z" fill="#FFCC00"/>
<path d="M23.668 10.6914L22.7326 10.7917L22.7603 11.1914L23.668 10.6914Z" fill="#FFCC00"/>
<path d="M23.6953 10.582L23.0105 11.2778L22.6333 10.9812L23.6953 10.582Z" fill="#FFCC00"/>
<path d="M23.3477 11.8105L23.0601 10.8562L22.5922 11.0075L23.3477 11.8105Z" fill="#FFCC00"/>
<path d="M23.3555 11.8086L22.5688 11.2347L22.8442 10.8163L23.3555 11.8086Z" fill="#FFCC00"/>
<path d="M20.4648 6.61133L19.6775 6.03854L19.9521 5.61903L20.4648 6.61133Z" fill="#FFCC00"/>
<path d="M20.457 6.61523L20.1706 5.66029L19.7015 5.8109L20.457 6.61523Z" fill="#FFCC00"/>
<path d="M20.8086 5.49414L20.026 6.08231L19.7465 5.67819L20.8086 5.49414Z" fill="#FFCC00"/>
<path d="M20.8086 5.50781L19.8561 5.4931L19.8456 5.97838L20.8086 5.50781Z" fill="#FFCC00"/>
<path d="M19.8945 4.80273L20.1898 5.75159L19.7296 5.9083L19.8945 4.80273Z" fill="#FFCC00"/>
<path d="M19.8594 4.80273L19.5932 5.77801L20.0826 5.9083L19.8594 4.80273Z" fill="#FFCC00"/>
<path d="M19.3281 6.61133L20.1058 6.01512L19.8214 5.61903L19.3281 6.61133Z" fill="#FFCC00"/>
<path d="M19.3281 6.63086L19.605 5.6614L20.0836 5.79751L19.3281 6.63086Z" fill="#FFCC00"/>
<path d="M18.9766 5.51758L19.7744 6.08206L20.0386 5.65424L18.9766 5.51758Z" fill="#FFCC00"/>
<path d="M18.9766 5.51367L19.9315 5.49361L19.9395 5.97355L18.9766 5.51367Z" fill="#FFCC00"/>
<path d="M21.4375 8.8125L21.724 7.85755L22.193 8.00817L21.4375 8.8125Z" fill="#FFCC00"/>
<path d="M21.4297 8.80859L22.2171 8.23581L21.9424 7.8163L21.4297 8.80859Z" fill="#FFCC00"/>
<path d="M22.5703 8.80664L21.7927 8.21044L22.0771 7.81435L22.5703 8.80664Z" fill="#FFCC00"/>
<path d="M22.5703 8.82617L22.2934 7.85672L21.8148 7.99283L22.5703 8.82617Z" fill="#FFCC00"/>
<path d="M22.9219 7.71289L22.124 8.27737L21.8598 7.84955L22.9219 7.71289Z" fill="#FFCC00"/>
<path d="M22.9219 7.70898L21.9669 7.68892L21.9589 8.16886L22.9219 7.70898Z" fill="#FFCC00"/>
<path d="M21.0898 7.68945L21.8724 8.27763L22.1519 7.87351L21.0898 7.68945Z" fill="#FFCC00"/>
<path d="M21.0898 7.70312L22.0424 7.68841L22.0528 8.17369L21.0898 7.70312Z" fill="#FFCC00"/>
<path d="M22.0039 6.99805L21.7086 7.94691L22.1688 8.10361L22.0039 6.99805Z" fill="#FFCC00"/>
<path d="M22.0391 6.99805L22.3052 7.97333L21.8158 8.10361L22.0391 6.99805Z" fill="#FFCC00"/>
<path d="M21.125 13.6895L22.0539 13.7492L22.0199 14.1895L21.125 13.6895Z" fill="#FFCC00"/>
<path d="M21.0938 13.5547L21.715 14.277L22.1558 14.007L21.0938 13.5547Z" fill="#FFCC00"/>
<path d="M21.4414 14.6562L21.8782 13.857L22.1969 14.1633L21.4414 14.6562Z" fill="#FFCC00"/>
<path d="M21.1602 14.8066L22.1412 14.5261L22.2222 13.8143L21.1602 14.8066Z" fill="#FFCC00"/>
<path d="M22.1797 14.8086L21.7946 14.0352L22.4715 13.8163L22.1797 14.8086Z" fill="#FFCC00"/>
<path d="M22.2383 14.9629L22.5703 13.9187L22.1468 13.8573L22.2383 14.9629Z" fill="#FFCC00"/>
<path d="M22.2578 12.998L21.711 13.7188L21.9197 14.1036L22.2578 12.998Z" fill="#FFCC00"/>
<path d="M22.3047 13.1113L21.95 14.1036L21.5492 13.9903L22.3047 13.1113Z" fill="#FFCC00"/>
<path d="M22.9219 13.7871L22.0854 13.6882L21.9589 14.0894L22.9219 13.7871Z" fill="#FFCC00"/>
<path d="M22.6836 14.2754L21.8609 14.239L22.1002 13.2831L22.6836 14.2754Z" fill="#FFCC00"/>
<path d="M19.0078 15.8867L19.9367 15.9464L19.9027 16.3867L19.0078 15.8867Z" fill="#FFCC00"/>
<path d="M18.9766 15.752L19.5978 16.4743L20.0386 16.2043L18.9766 15.752Z" fill="#FFCC00"/>
<path d="M19.3242 16.8535L19.761 16.0543L20.0797 16.3606L19.3242 16.8535Z" fill="#FFCC00"/>
<path d="M19.043 17.0039L20.024 16.7234L20.105 16.0116L19.043 17.0039Z" fill="#FFCC00"/>
<path d="M20.0625 17.0059L19.6774 16.2325L20.3543 16.0136L20.0625 17.0059Z" fill="#FFCC00"/>
<path d="M20.1211 17.1602L20.4531 16.116L20.0296 16.0546L20.1211 17.1602Z" fill="#FFCC00"/>
<path d="M20.1406 15.1953L19.5938 15.916L19.8025 16.3009L20.1406 15.1953Z" fill="#FFCC00"/>
<path d="M20.1875 15.3086L19.8328 16.3009L19.432 16.1876L20.1875 15.3086Z" fill="#FFCC00"/>
<path d="M20.8047 15.9844L19.9682 15.8855L19.8417 16.2866L20.8047 15.9844Z" fill="#FFCC00"/>
<path d="M20.5664 16.4727L19.7437 16.4362L19.9831 15.4804L20.5664 16.4727Z" fill="#FFCC00"/>
</g>
<rect x="4" y="2" width="26" height="18" stroke="#A8B7D4" strokeWidth="0.13599" strokeLinejoin="round"/>
</g>
<defs>
<filter id="filter0_dd_5262_373119" x="0.65952" y="0.840283" width="32.681" height="24.6849" filterUnits="userSpaceOnUse" color-interpolation-filters="sRGB">
<feFlood flood-opacity="0" result="BackgroundImageFix"/>
<feColorMatrix in="SourceAlpha" type="matrix" values="0 0 0 0 0 0 0 0 0 0 0 0 0 0 0 0 0 0 127 0" result="hardAlpha"/>
<feOffset dy="2.18272"/>
<feGaussianBlur stdDeviation="1.63704"/>
<feComposite in2="hardAlpha" operator="out"/>
<feColorMatrix type="matrix" values="0 0 0 0 0.258824 0 0 0 0 0.278431 0 0 0 0 0.298039 0 0 0 0.08 0"/>
<feBlend mode="normal" in2="BackgroundImageFix" result="effect1_dropShadow_5262_373119"/>
<feColorMatrix in="SourceAlpha" type="matrix" values="0 0 0 0 0 0 0 0 0 0 0 0 0 0 0 0 0 0 127 0" result="hardAlpha"/>
<feOffset/>
<feGaussianBlur stdDeviation="0.13642"/>
<feComposite in2="hardAlpha" operator="out"/>
<feColorMatrix type="matrix" values="0 0 0 0 0.258824 0 0 0 0 0.278431 0 0 0 0 0.298039 0 0 0 0.32 0"/>
<feBlend mode="normal" in2="effect1_dropShadow_5262_373119" result="effect2_dropShadow_5262_373119"/>
<feBlend mode="normal" in="SourceGraphic" in2="effect2_dropShadow_5262_373119" result="shape"/>
</filter>
<clipPath id="clip0_5262_373119">
<rect x="4" y="2" width="26" height="18" fill="white"/>
</clipPath>
</defs>
</svg>
