<svg width="26" height="18" viewBox="0 0 26 18" fill="none" xmlns="http://www.w3.org/2000/svg">
<path fill-rule="evenodd" clip-rule="evenodd" d="M0 0V18H26V0H0Z" fill="#2E42A5"/>
<mask id="mask0_5262_373345" style="mask-type:luminance" maskUnits="userSpaceOnUse" x="0" y="0" width="26" height="18">
<path fill-rule="evenodd" clip-rule="evenodd" d="M0 0V18H26V0H0Z" fill="white"/>
</mask>
<g mask="url(#mask0_5262_373345)">
<path d="M-2.89062 16.7118L2.83075 18.9453L26.1343 2.4261L29.1521 -0.893013L23.034 -1.63953L13.529 5.47907L5.87852 10.2753L-2.89062 16.7118Z" fill="white"/>
<path d="M-2.10938 18.2781L0.8054 19.5742L28.0664 -1.19999H23.9737L-2.10938 18.2781Z" fill="#F50100"/>
<path d="M28.8984 16.7118L23.1771 18.9453L-0.12644 2.4261L-3.14433 -0.893013L2.97385 -1.63953L12.4788 5.47907L20.1293 10.2753L28.8984 16.7118Z" fill="white"/>
<path d="M28.7031 17.8366L25.7883 19.1328L14.1803 10.2383L10.7388 9.24453L-3.43481 -0.879866H0.657869L14.8235 9.00422L18.5862 10.1959L28.7031 17.8366Z" fill="#F50100"/>
<mask id="path-7-inside-1_5262_373345" fill="white">
<path fill-rule="evenodd" clip-rule="evenodd" d="M16.0686 -1.50195H9.92969V5.99805H-1.60547V11.998H9.92969V19.498H16.0686V11.998H27.6445V5.99805H16.0686V-1.50195Z"/>
</mask>
<path fill-rule="evenodd" clip-rule="evenodd" d="M16.0686 -1.50195H9.92969V5.99805H-1.60547V11.998H9.92969V19.498H16.0686V11.998H27.6445V5.99805H16.0686V-1.50195Z" fill="#F50100"/>
<path d="M9.92969 -1.50195V-2.50195H8.92969V-1.50195H9.92969ZM16.0686 -1.50195H17.0686V-2.50195H16.0686V-1.50195ZM9.92969 5.99805V6.99805H10.9297V5.99805H9.92969ZM-1.60547 5.99805V4.99805H-2.60547V5.99805H-1.60547ZM-1.60547 11.998H-2.60547V12.998H-1.60547V11.998ZM9.92969 11.998H10.9297V10.998H9.92969V11.998ZM9.92969 19.498H8.92969V20.498H9.92969V19.498ZM16.0686 19.498V20.498H17.0686V19.498H16.0686ZM16.0686 11.998V10.998H15.0686V11.998H16.0686ZM27.6445 11.998V12.998H28.6445V11.998H27.6445ZM27.6445 5.99805H28.6445V4.99805H27.6445V5.99805ZM16.0686 5.99805H15.0686V6.99805H16.0686V5.99805ZM9.92969 -0.501953H16.0686V-2.50195H9.92969V-0.501953ZM10.9297 5.99805V-1.50195H8.92969V5.99805H10.9297ZM-1.60547 6.99805H9.92969V4.99805H-1.60547V6.99805ZM-0.605469 11.998V5.99805H-2.60547V11.998H-0.605469ZM9.92969 10.998H-1.60547V12.998H9.92969V10.998ZM10.9297 19.498V11.998H8.92969V19.498H10.9297ZM16.0686 18.498H9.92969V20.498H16.0686V18.498ZM15.0686 11.998V19.498H17.0686V11.998H15.0686ZM27.6445 10.998H16.0686V12.998H27.6445V10.998ZM26.6445 5.99805V11.998H28.6445V5.99805H26.6445ZM16.0686 6.99805H27.6445V4.99805H16.0686V6.99805ZM15.0686 -1.50195V5.99805H17.0686V-1.50195H15.0686Z" fill="white" mask="url(#path-7-inside-1_5262_373345)"/>
</g>
</svg>
