<svg width="26" height="18" viewBox="0 0 26 18" fill="none" xmlns="http://www.w3.org/2000/svg">
<g clipPath="url(#clip0_5262_373385)">
<rect width="26" height="18" fill="white"/>
<path fill-rule="evenodd" clip-rule="evenodd" d="M0 0V18H26V0H0Z" fill="#EA1A1A"/>
<mask id="mask0_5262_373385" style="mask-type:luminance" maskUnits="userSpaceOnUse" x="0" y="0" width="26" height="18">
<path fill-rule="evenodd" clip-rule="evenodd" d="M0 0V18H26V0H0Z" fill="white"/>
</mask>
<g mask="url(#mask0_5262_373385)">
<path fill-rule="evenodd" clip-rule="evenodd" d="M12.893 8.68146C12.893 8.68146 8.1889 4.80902 13.8023 2.55273C13.8023 2.55273 15.4348 4.2152 14.2101 6.08154C13.8084 6.69367 13.4695 7.13077 13.2148 7.45926L13.2148 7.45927C12.6931 8.13227 12.5248 8.34933 12.893 8.68146ZM5.95039 5.90102C5.62732 11.5447 11.483 9.39194 11.483 9.39194C10.9967 9.54741 10.8616 9.31143 10.4428 8.58003C10.2383 8.22289 9.96618 7.74762 9.55251 7.14212C8.29156 5.2964 5.95039 5.90102 5.95039 5.90102ZM14.8175 8.87068C14.8175 8.87068 20.856 10.5394 16.8064 14.7781C16.8064 14.7781 14.5645 13.9102 14.8175 11.7409C14.9006 11.0296 15.0069 10.5013 15.0868 10.1042L15.0868 10.1041L15.0868 10.1041C15.2506 9.29024 15.3034 9.02765 14.8175 8.87068ZM13.2304 10.1717C13.2304 10.1717 14.3129 15.9034 8.39515 14.4549C8.39515 14.4549 8.23404 12.2159 10.4493 11.455C11.176 11.2054 11.7356 11.0569 12.1561 10.9453C13.0177 10.7167 13.2956 10.643 13.2304 10.1717ZM20.7005 7.70687C16.9991 3.20523 14.034 8.33925 14.034 8.33925C14.2967 7.93062 14.5649 8.03026 15.3961 8.33906C15.8022 8.48989 16.3425 8.69062 17.0822 8.90639C19.336 9.56391 20.7005 7.70687 20.7005 7.70687Z" fill="white"/>
<path d="M8.25781 7.65625C8.25781 7.65625 9.44066 9.37462 11.3777 9.37462" stroke="#EA1A1A" strokeWidth="0.5"/>
<path d="M12.8867 5.28711C12.8867 5.28711 11.8252 7.09479 12.7346 8.67356" stroke="#EA1A1A" strokeWidth="0.5"/>
<path d="M17.9648 7.32031C17.9648 7.32031 15.4866 6.97351 14.1904 8.3023" stroke="#EA1A1A" strokeWidth="0.5"/>
<path d="M16.5156 11.5078C16.5156 11.5078 16.0211 9.23952 14.225 8.5697" stroke="#EA1A1A" strokeWidth="0.5"/>
<path d="M11.3164 12.7402C11.3164 12.7402 13.4564 11.5354 13.524 9.74846" stroke="#EA1A1A" strokeWidth="0.5"/>
</g>
</g>
<defs>
<clipPath id="clip0_5262_373385">
<rect width="26" height="18" fill="white"/>
</clipPath>
</defs>
</svg>
