<svg width="26" height="18" viewBox="0 0 26 18" fill="none" xmlns="http://www.w3.org/2000/svg">
<path d="M0 0H26V6H0V0Z" fill="#FF9933"/>
<path d="M0 6H26V12H0V6Z" fill="white"/>
<path d="M0 12H26V18H0V12Z" fill="#128807"/>
<path d="M13.0911 11.3113C14.3215 11.3113 15.3189 10.2732 15.3189 8.99255C15.3189 7.71196 14.3215 6.67383 13.0911 6.67383C11.8607 6.67383 10.8633 7.71196 10.8633 8.99255C10.8633 10.2732 11.8607 11.3113 13.0911 11.3113Z" fill="#000088"/>
<path d="M13.0899 11.0207C14.1665 11.0207 15.0393 10.1123 15.0393 8.99178C15.0393 7.87125 14.1665 6.96289 13.0899 6.96289C12.0134 6.96289 11.1406 7.87125 11.1406 8.99178C11.1406 10.1123 12.0134 11.0207 13.0899 11.0207Z" fill="white"/>
<path d="M13.0891 9.39749C13.3044 9.39749 13.4789 9.21582 13.4789 8.99171C13.4789 8.76761 13.3044 8.58594 13.0891 8.58594C12.8738 8.58594 12.6992 8.76761 12.6992 8.99171C12.6992 9.21582 12.8738 9.39749 13.0891 9.39749Z" fill="#000088"/>
<path d="M15.0107 9.36114C15.0656 9.36867 15.116 9.32845 15.1232 9.27131C15.1304 9.21418 15.0918 9.16177 15.0369 9.15424C14.982 9.14672 14.9316 9.18694 14.9244 9.24408C14.9172 9.30121 14.9558 9.35362 15.0107 9.36114Z" fill="#000088"/>
<path d="M13.0903 11.0216L13.1571 9.80429L13.0903 9.22461L13.0234 9.80429L13.0903 11.0216Z" fill="#000088"/>
<path d="M14.8297 9.846C14.8674 9.87884 14.926 9.87106 14.9607 9.82862C14.9953 9.78617 14.9928 9.72514 14.955 9.69229C14.9173 9.65944 14.8587 9.66722 14.824 9.70967C14.7894 9.75211 14.7919 9.81315 14.8297 9.846Z" fill="#000088"/>
<path d="M12.5757 10.9444L12.9479 9.80223L13.0506 9.22193L12.8468 9.75289L12.5757 10.9444Z" fill="#000088"/>
<path d="M14.5664 10.3063C14.6067 10.343 14.6696 10.3369 14.707 10.2928C14.7444 10.2486 14.7421 10.1831 14.7018 10.1465C14.6615 10.1098 14.5986 10.1159 14.5612 10.16C14.5239 10.2041 14.5262 10.2696 14.5664 10.3063Z" fill="#000088"/>
<path d="M12.1138 10.75L12.7568 9.72415L12.9789 9.18832L12.6428 9.66002L12.1138 10.75Z" fill="#000088"/>
<path d="M14.1847 10.6624C14.2137 10.7106 14.2766 10.7232 14.3253 10.6906C14.374 10.658 14.39 10.5925 14.361 10.5443C14.3321 10.4961 14.2691 10.4835 14.2204 10.5161C14.1718 10.5486 14.1558 10.6142 14.1847 10.6624Z" fill="#000088"/>
<path d="M11.6996 10.4223L12.5769 9.62243L12.9373 9.16158L12.4992 9.51411L11.6996 10.4223Z" fill="#000088"/>
<path d="M13.7439 10.9069C13.7665 10.9601 13.8252 10.9852 13.8749 10.963C13.9246 10.9408 13.9465 10.8798 13.9238 10.8267C13.9012 10.7735 13.8425 10.7484 13.7928 10.7706C13.7432 10.7928 13.7212 10.8538 13.7439 10.9069Z" fill="#000088"/>
<path d="M11.4055 10.0079L12.4509 9.45871L12.8954 9.10874L12.3787 9.33888L11.4055 10.0079Z" fill="#000088"/>
<path d="M13.2466 11.014C13.2543 11.0719 13.3046 11.1135 13.359 11.1067C13.4135 11.1 13.4513 11.0476 13.4436 10.9897C13.4359 10.9317 13.3856 10.8902 13.3312 10.8969C13.2767 10.9036 13.2389 10.9561 13.2466 11.014Z" fill="#000088"/>
<path d="M11.2051 9.49299L12.3535 9.30087L12.8806 9.07524L12.3267 9.11913L11.2051 9.49299Z" fill="#000088"/>
<path d="M12.7378 11.0112C12.7447 11.0718 12.795 11.1175 12.8503 11.1135C12.9056 11.1094 12.9449 11.057 12.9381 10.9964C12.9313 10.9358 12.8809 10.89 12.8256 10.8941C12.7703 10.8982 12.731 10.9506 12.7378 11.0112Z" fill="#000088"/>
<path d="M11.1474 8.92666L12.3103 9.01959L12.8682 9.05839L12.316 9.0122L11.1474 8.92666Z" fill="#000088"/>
<path d="M12.2225 10.8516C12.2254 10.918 12.2841 10.979 12.3535 10.9879C12.4229 10.9968 12.4769 10.9502 12.474 10.8839C12.4711 10.8175 12.4125 10.7564 12.343 10.7475C12.2736 10.7386 12.2196 10.7852 12.2225 10.8516Z" fill="#000088"/>
<path d="M11.2128 8.78696L12.3589 8.88223L12.8754 8.6133L12.3192 8.45641L11.2128 8.78696Z" fill="#000088"/>
<path d="M11.833 10.5356C11.7959 10.5795 11.7986 10.645 11.839 10.6819C11.8795 10.7188 11.9424 10.7132 11.9796 10.6693C12.0168 10.6254 12.0141 10.5599 11.9736 10.523C11.9331 10.4861 11.8702 10.4917 11.833 10.5356Z" fill="#000088"/>
<path d="M11.4076 7.97899L12.3809 8.64803L12.8976 8.87823L12.453 8.52828L11.4076 7.97899Z" fill="#000088"/>
<path d="M11.4964 10.138C11.4467 10.1698 11.429 10.2353 11.4569 10.2843C11.4848 10.3333 11.5477 10.3472 11.5975 10.3154C11.6472 10.2836 11.6649 10.2181 11.637 10.1691C11.6091 10.1201 11.5461 10.1062 11.4964 10.138Z" fill="#000088"/>
<path d="M11.7268 7.55193L12.4817 8.46375L12.9265 8.83304L12.5974 8.3758L11.7268 7.55193Z" fill="#000088"/>
<path d="M11.27 9.65871C11.2092 9.67484 11.1692 9.73588 11.1808 9.79504C11.1923 9.8542 11.2509 9.88909 11.3117 9.87296C11.3726 9.85683 11.4125 9.79579 11.401 9.73663C11.3895 9.67746 11.3309 9.64258 11.27 9.65871Z" fill="#000088"/>
<path d="M12.1464 7.22593L12.6063 8.31803L12.9527 8.79954L12.7789 8.26582L12.1464 7.22593Z" fill="#000088"/>
<path d="M11.1742 9.13979C11.1181 9.1393 11.0677 9.19093 11.0617 9.2551C11.0557 9.31927 11.0963 9.37168 11.1523 9.37217C11.2084 9.37265 11.2588 9.32103 11.2648 9.25686C11.2709 9.19269 11.2303 9.14027 11.1742 9.13979Z" fill="#000088"/>
<path d="M12.773 7.02124L12.5805 8.21871L12.8541 8.77737L13.0754 8.20304L12.773 7.02124Z" fill="#000088"/>
<path d="M11.184 8.6293C11.1355 8.61843 11.0851 8.65321 11.0715 8.70699C11.0579 8.76077 11.0863 8.81318 11.1348 8.82406C11.1833 8.83493 11.2337 8.80015 11.2473 8.74637C11.2609 8.69259 11.2325 8.64018 11.184 8.6293Z" fill="#000088"/>
<path d="M13.1563 6.97711L13.0668 8.16063L13.0284 8.74541L13.0725 8.18935L13.1563 6.97711Z" fill="#000088"/>
<path d="M11.3408 8.12576C11.2957 8.09988 11.237 8.11896 11.2099 8.16838C11.1827 8.21779 11.1973 8.27883 11.2424 8.30471C11.2876 8.33058 11.3462 8.3115 11.3734 8.26209C11.4006 8.21267 11.386 8.15164 11.3408 8.12576Z" fill="#000088"/>
<path d="M13.6019 7.02828L13.2322 8.19341L13.1415 8.77025L13.3478 8.22323L13.6019 7.02828Z" fill="#000088"/>
<path d="M11.6151 7.67978C11.5773 7.6411 11.5144 7.64389 11.4745 7.686C11.4346 7.72812 11.4329 7.79362 11.4707 7.8323C11.5085 7.87099 11.5714 7.8682 11.6113 7.82608C11.6511 7.78397 11.6528 7.71846 11.6151 7.67978Z" fill="#000088"/>
<path d="M14.0723 7.23895L13.4258 8.24941L13.1873 8.78757L13.5198 8.32662L14.0723 7.23895Z" fill="#000088"/>
<path d="M12.0001 7.32895C11.975 7.278 11.9121 7.26089 11.8596 7.29074C11.8071 7.32059 11.7849 7.38609 11.81 7.43704C11.8351 7.48799 11.898 7.5051 11.9505 7.47525C12.003 7.44541 12.0252 7.37991 12.0001 7.32895Z" fill="#000088"/>
<path d="M14.4838 7.57286L13.6033 8.35191L13.228 8.8159L13.6629 8.47793L14.4838 7.57286Z" fill="#000088"/>
<path d="M12.4358 7.07741C12.4132 7.0243 12.3545 6.99923 12.3048 7.02141C12.2552 7.04359 12.2332 7.10462 12.2559 7.15774C12.2785 7.21085 12.3372 7.23593 12.3869 7.21374C12.4365 7.19156 12.4585 7.13053 12.4358 7.07741Z" fill="#000088"/>
<path d="M14.7742 7.97645L13.7288 8.5257L13.2843 8.87565L13.8009 8.64548L14.7742 7.97645Z" fill="#000088"/>
<path d="M12.9377 6.96864C12.9301 6.91058 12.8798 6.86886 12.8252 6.87546C12.7707 6.88205 12.7326 6.93447 12.7402 6.99253C12.7478 7.05059 12.7981 7.09231 12.8527 7.08571C12.9072 7.07912 12.9453 7.02671 12.9377 6.96864Z" fill="#000088"/>
<path d="M14.9789 8.49192L13.8305 8.68278L13.3031 8.90859L13.857 8.86559L14.9789 8.49192Z" fill="#000088"/>
<path d="M13.4469 6.9767C13.4411 6.91419 13.3907 6.86526 13.3345 6.8674C13.2782 6.86955 13.2374 6.92196 13.2433 6.98447C13.2491 7.04698 13.2995 7.09592 13.3557 7.09377C13.412 7.09163 13.4528 7.03921 13.4469 6.9767Z" fill="#000088"/>
<path d="M15.0344 9.05842L13.8757 8.96541L13.3171 8.92622L13.8665 8.97233L15.0344 9.05842Z" fill="#000088"/>
<path d="M13.9653 7.13862C13.9632 7.07403 13.9046 7.01299 13.8343 7.00229C13.7641 6.99158 13.7089 7.03526 13.711 7.09985C13.7131 7.16444 13.7718 7.22548 13.842 7.23618C13.9122 7.24689 13.9674 7.20321 13.9653 7.13862Z" fill="#000088"/>
<path d="M14.9695 9.24207L13.8245 9.04623L13.313 9.33032L13.8703 9.55747L14.9695 9.24207Z" fill="#000088"/>
<path d="M14.3667 7.43965C14.3949 7.38942 14.3778 7.32392 14.3284 7.29335C14.2791 7.26278 14.2161 7.27873 14.1879 7.32896C14.1596 7.3792 14.1767 7.4447 14.2261 7.47526C14.2755 7.50583 14.3384 7.48988 14.3667 7.43965Z" fill="#000088"/>
<path d="M14.7907 9.989L13.7828 9.32629L13.2713 9.12542L13.7401 9.4817L14.7907 9.989Z" fill="#000088"/>
<path d="M14.7109 7.83442C14.7497 7.79537 14.7497 7.72987 14.7108 7.68812C14.672 7.64636 14.6091 7.64416 14.5703 7.68321C14.5315 7.72225 14.5315 7.78776 14.5703 7.82951C14.6091 7.87126 14.6721 7.87346 14.7109 7.83442Z" fill="#000088"/>
<path d="M14.4834 10.4164L13.675 9.5102L13.2382 9.16683L13.6048 9.62966L14.4834 10.4164Z" fill="#000088"/>
<path d="M14.9399 8.30745C14.9862 8.28221 15.0025 8.22117 14.9764 8.17111C14.9504 8.12106 14.8917 8.10094 14.8455 8.12618C14.7992 8.15142 14.7829 8.21245 14.809 8.26251C14.8351 8.31256 14.8937 8.33268 14.9399 8.30745Z" fill="#000088"/>
<path d="M14.079 10.7426L13.5207 9.65587L13.1891 9.1991L13.4316 9.73815L14.079 10.7426Z" fill="#000088"/>
<path d="M15.0481 8.82599C15.0983 8.81521 15.1294 8.76279 15.1175 8.70892C15.1056 8.65504 15.0553 8.6201 15.005 8.63088C14.9548 8.64165 14.9237 8.69407 14.9356 8.74795C14.9475 8.80182 14.9978 8.83676 15.0481 8.82599Z" fill="#000088"/>
<path d="M13.6131 10.948L13.3378 9.7558L13.1347 9.2215L13.2403 9.80108L13.6131 10.948Z" fill="#000088"/>
</svg>
