<svg width="26" height="18" viewBox="0 0 26 18" fill="none" xmlns="http://www.w3.org/2000/svg">
<mask id="mask0_5262_373512" style="mask-type:luminance" maskUnits="userSpaceOnUse" x="0" y="0" width="26" height="18">
<path d="M0 0H26V18H0V0Z" fill="white"/>
</mask>
<g mask="url(#mask0_5262_373512)">
<path d="M0 0H26V18H0V0Z" fill="#CC0000"/>
<path d="M0 0H26V1.28625H0V0Z" fill="#CC0000"/>
<path d="M0 1.28516H26V2.57141H0V1.28516Z" fill="white"/>
<path d="M0 2.57227H26V3.85852H0V2.57227Z" fill="#CC0000"/>
<path d="M0 3.85938H26V5.13813H0V3.85938Z" fill="white"/>
<path d="M0 5.14062H26V6.42687H0V5.14062Z" fill="#CC0000"/>
<path d="M0 6.42773H26V7.71398H0V6.42773Z" fill="white"/>
<path d="M0 7.71289H26V8.99914H0V7.71289Z" fill="#CC0000"/>
<path d="M0 9H26V10.2862H0V9Z" fill="white"/>
<path d="M0 10.2871H26V11.5734H0V10.2871Z" fill="#CC0000"/>
<path d="M0 11.5723H26V12.8585H0V11.5723Z" fill="white"/>
<path d="M0 12.8594H26V14.1381H0V12.8594Z" fill="#CC0000"/>
<path d="M0 14.1406H26V15.4269H0V14.1406Z" fill="white"/>
<path d="M0 15.4277H26V16.714H0V15.4277Z" fill="#CC0000"/>
<path d="M0 16.7129H26V17.9991H0V16.7129Z" fill="white"/>
<path d="M0 0.0195312H13V10.3058H0V0.0195312Z" fill="#000066"/>
<path d="M8.24948 2.77068L8.45525 4.22348L9.24405 3.00984L8.81879 4.4091L10.0363 3.66663L9.07257 4.73749L10.4787 4.62327L9.16517 5.15156L10.4787 5.67985L9.07257 5.56562L10.0363 6.63649L8.81879 5.89402L9.24062 7.29685L8.45182 6.07964L8.24605 7.53244L8.04371 6.07964L7.25491 7.29328L7.68017 5.89402L6.46268 6.63649L7.42296 5.56562L6.01684 5.67985L7.33379 5.15156L6.02027 4.62327L7.42639 4.73749L6.46268 3.66663L7.68017 4.4091L7.25491 3.00627L8.04371 4.22348L8.24948 2.77068ZM7.10744 2.83136C6.73608 2.65941 6.32931 2.5868 5.92412 2.62014C5.51893 2.65348 5.12818 2.79171 4.78739 3.02227C4.4466 3.25282 4.16659 3.56838 3.97282 3.94025C3.77905 4.31213 3.67767 4.72852 3.67789 5.15156C3.67767 5.5746 3.77905 5.99099 3.97282 6.36286C4.16659 6.73474 4.4466 7.0503 4.78739 7.28085C5.12818 7.5114 5.51893 7.64963 5.92412 7.68298C6.32931 7.71632 6.73608 7.64371 7.10744 7.47176C6.69742 7.7783 6.2141 7.96116 5.71066 8.00021C5.20722 8.03926 4.70319 7.93298 4.25405 7.69307C3.80543 7.45283 3.42913 7.08849 3.16654 6.64011C2.90395 6.19173 2.76523 5.67667 2.76563 5.15156C2.76579 4.62658 2.905 4.1118 3.16795 3.66381C3.4309 3.21581 3.80742 2.85193 4.25612 2.61214C4.70483 2.37236 5.20836 2.26596 5.71138 2.30464C6.21441 2.34331 6.69745 2.52556 7.10744 2.83136Z" fill="#FFCC00"/>
</g>
</svg>
