<svg width="26" height="18" viewBox="0 0 26 18" fill="none" xmlns="http://www.w3.org/2000/svg">
<path fill-rule="evenodd" clip-rule="evenodd" d="M0 0V18H26V0H0Z" fill="#F7FCFF"/>
<mask id="mask0_5262_373369" style="mask-type:luminance" maskUnits="userSpaceOnUse" x="0" y="0" width="26" height="18">
<path fill-rule="evenodd" clip-rule="evenodd" d="M0 0V18H26V0H0Z" fill="white"/>
</mask>
<g mask="url(#mask0_5262_373369)">
<path fill-rule="evenodd" clip-rule="evenodd" d="M0 0V9H26V0H0Z" fill="#E31D1C"/>
<path fill-rule="evenodd" clip-rule="evenodd" d="M7.20558 7.94277C7.20558 7.94277 4.90971 7.09041 4.90971 4.7811C4.90971 2.4718 7.20558 1.64697 7.20558 1.64697C6.08975 1.38622 3.12891 1.61943 3.12891 4.7811C3.12891 7.94277 6.04501 8.53903 7.20558 7.94277ZM7.79278 7.56108L8.45141 7.19405L9.12456 7.56108L8.95982 6.84486L9.50703 6.27986H8.76562L8.45141 5.61108L8.1372 6.27986L7.39453 6.30884L7.94301 6.84486L7.79278 7.56108ZM10.8459 7.15304L10.1873 7.52007L10.3375 6.80385L9.78906 6.26783L10.5317 6.23884L10.8459 5.57007L11.1602 6.23884H11.9016L11.3543 6.80385L11.5191 7.52007L10.8459 7.15304ZM9.17169 4.32744L9.83032 3.96041L10.5035 4.32744L10.3387 3.61122L10.8859 3.04622H10.1445L9.83032 2.37744L9.51611 3.04622L8.77344 3.0752L9.32192 3.61122L9.17169 4.32744ZM7.61157 5.4172L6.95294 5.78423L7.10317 5.06801L6.55469 4.53199L7.29736 4.503L7.61157 3.83423L7.92578 4.503H8.66719L8.11997 5.06801L8.28472 5.78423L7.61157 5.4172ZM11.3084 5.75127L11.967 5.38424L12.6402 5.75127L12.4754 5.03505L13.0227 4.47004H12.2812L11.967 3.80127L11.6528 4.47004L10.9102 4.49903L11.4586 5.03505L11.3084 5.75127Z" fill="#F1F9FF"/>
</g>
</svg>
