<svg width="26" height="18" viewBox="0 0 26 18" fill="none" xmlns="http://www.w3.org/2000/svg">
<path d="M0 0.0625H26V17.9374H0V0.0625Z" fill="white"/>
<path d="M0 0.0625H26V1.43752H0V0.0625ZM0 2.81254H26V4.18756H0V2.81254ZM0 5.56246H26V6.93748H0V5.56246ZM0 8.3125H26V9.68752H0V8.3125ZM0 11.0624H26V12.4374H0V11.0624ZM0 13.8125H26V15.1875H0V13.8125ZM0 16.5624H26V17.9374H0V16.5624Z" fill="#B22234"/>
<path d="M0 0.0625H10.4V9.68741H0V0.0625Z" fill="#3C3B6E"/>
<path d="M0.488281 0.843268L0.736061 1.0784L0.641421 1.45889L0.889114 1.22376L1.13689 1.45889L1.04225 1.0784L1.28995 0.843268H0.983754L0.889114 0.462891L0.794475 0.843268H0.488281ZM2.21251 0.843268L2.46021 1.0784L2.36557 1.45889L2.61335 1.22376L2.86113 1.45889L2.76649 1.0784L3.01418 0.843268H2.70799L2.61335 0.462891L2.51871 0.843268H2.21251ZM3.93675 0.843268L4.18444 1.0784L4.0898 1.45889L4.33758 1.22376L4.58527 1.45889L4.49063 1.0784L4.73841 0.843268H4.43222L4.33758 0.462891L4.24294 0.843268H3.93675ZM5.66098 0.843268L5.90867 1.0784L5.81403 1.45889L6.06181 1.22376L6.30951 1.45889L6.21487 1.0784L6.46265 0.843268H6.15637L6.06181 0.462891L5.96717 0.843268H5.66098ZM7.38513 0.843268L7.63291 1.0784L7.53827 1.45889L7.78596 1.22376L8.03374 1.45889L7.9391 1.0784L8.18679 0.843268H7.8806L7.78596 0.462891L7.69132 0.843268H7.38513ZM9.10936 0.843268L9.35705 1.0784L9.26241 1.45889L9.51019 1.22376L9.75789 1.45889L9.66325 1.0784L9.91103 0.843268H9.60483L9.51019 0.462891L9.41555 0.843268H9.10936ZM1.35035 1.80859L1.59813 2.04372L1.50349 2.4241L1.75127 2.18897L1.99897 2.4241L1.90433 2.04372L2.15211 1.80859H1.84583L1.75127 1.4281L1.65663 1.80859H1.35035ZM3.07459 1.80859L3.32237 2.04372L3.22773 2.4241L3.47542 2.18897L3.7232 2.4241L3.62856 2.04372L3.87625 1.80859H3.57006L3.47542 1.4281L3.38078 1.80859H3.07459ZM4.79882 1.80859L5.0466 2.04372L4.95196 2.4241L5.19965 2.18897L5.44743 2.4241L5.35279 2.04372L5.60049 1.80859H5.29429L5.19965 1.4281L5.10501 1.80859H4.79882ZM6.52305 1.80859L6.77075 2.04372L6.67611 2.4241L6.92389 2.18897L7.17158 2.4241L7.07694 2.04372L7.32472 1.80859H7.01853L6.92389 1.4281L6.82925 1.80859H6.52305ZM8.2472 1.80859L8.49498 2.04372L8.40034 2.4241L8.64803 2.18897L8.89581 2.4241L8.80117 2.04372L9.04887 1.80859H8.74267L8.64803 1.4281L8.55348 1.80859H8.2472ZM0.488281 2.7738L0.736061 3.00893L0.641421 3.38942L0.889114 3.15429L1.13689 3.38942L1.04225 3.00893L1.28995 2.7738H0.983754L0.889114 2.39342L0.794475 2.7738H0.488281ZM2.21251 2.7738L2.46021 3.00893L2.36557 3.38942L2.61335 3.15429L2.86113 3.38942L2.76649 3.00893L3.01418 2.7738H2.70799L2.61335 2.39342L2.51871 2.7738H2.21251ZM3.93675 2.7738L4.18444 3.00893L4.0898 3.38942L4.33758 3.15429L4.58527 3.38942L4.49063 3.00893L4.73841 2.7738H4.43222L4.33758 2.39342L4.24294 2.7738H3.93675ZM5.66098 2.7738L5.90867 3.00893L5.81403 3.38942L6.06181 3.15429L6.30951 3.38942L6.21487 3.00893L6.46265 2.7738H6.15637L6.06181 2.39342L5.96717 2.7738H5.66098ZM7.38513 2.7738L7.63291 3.00893L7.53827 3.38942L7.78596 3.15429L8.03374 3.38942L7.9391 3.00893L8.18679 2.7738H7.8806L7.78596 2.39342L7.69132 2.7738H7.38513ZM9.10936 2.7738L9.35705 3.00893L9.26241 3.38942L9.51019 3.15429L9.75789 3.38942L9.66325 3.00893L9.91103 2.7738H9.60483L9.51019 2.39342L9.41555 2.7738H9.10936ZM1.37167 3.74229L1.61937 3.97742L1.52481 4.3578L1.77251 4.12266L2.02029 4.3578L1.92565 3.97731L2.17334 3.74229H1.86715L1.77251 3.3618L1.67787 3.74229H1.37167ZM3.09591 3.74229L3.3436 3.97742L3.24896 4.3578L3.49674 4.12266L3.74443 4.3578L3.64979 3.97731L3.89757 3.74229H3.59138L3.49674 3.3618L3.4021 3.74229H3.09591ZM4.82014 3.74229L5.06783 3.97742L4.97319 4.3578L5.22097 4.12266L5.46867 4.3578L5.37403 3.97731L5.62181 3.74229H5.31553L5.22097 3.3618L5.12633 3.74229H4.82014ZM6.54429 3.74229L6.79207 3.97742L6.69743 4.3578L6.94512 4.12266L7.1929 4.3578L7.09826 3.97731L7.34595 3.74229H7.03976L6.94512 3.3618L6.85048 3.74229H6.54429ZM8.26852 3.74229L8.51621 3.97742L8.42157 4.3578L8.66935 4.12266L8.91705 4.3578L8.82241 3.97731L9.07019 3.74229H8.76399L8.66935 3.3618L8.57471 3.74229H8.26852ZM0.514455 4.69946L0.762235 4.93448L0.667595 5.31497L0.915288 5.07983L1.16307 5.31497L1.06843 4.93448L1.31612 4.69946H1.00993L0.915288 4.31897L0.820648 4.69946H0.514455ZM2.23869 4.69946L2.48638 4.93448L2.39174 5.31497L2.63952 5.07983L2.88721 5.31497L2.79266 4.93448L3.04035 4.69946H2.73416L2.63952 4.31897L2.54488 4.69946H2.23869ZM3.96292 4.69946L4.21061 4.93448L4.11597 5.31497L4.36375 5.07983L4.61145 5.31497L4.51681 4.93448L4.76459 4.69946H4.45839L4.36375 4.31897L4.26911 4.69946H3.96292ZM5.68707 4.69946L5.93485 4.93448L5.84021 5.31497L6.0879 5.07983L6.33568 5.31497L6.24104 4.93448L6.48882 4.69946H6.18254L6.0879 4.31897L5.99335 4.69946H5.68707ZM7.4113 4.69946L7.65899 4.93448L7.56444 5.31497L7.81213 5.07983L8.05991 5.31497L7.96527 4.93448L8.21297 4.69946H7.90677L7.81213 4.31897L7.71749 4.69946H7.4113ZM9.13553 4.69946L9.38323 4.93448L9.28859 5.31497L9.53637 5.07983L9.78406 5.31497L9.68942 4.93448L9.9372 4.69946H9.63101L9.53637 4.31897L9.44173 4.69946H9.13553ZM0.530661 6.59931L0.778355 6.83444L0.683715 7.21493L0.931495 6.9798L1.17919 7.21493L1.08455 6.83444L1.33233 6.59931H1.02613L0.931495 6.21893L0.836855 6.59931H0.530661ZM2.25481 6.59931L2.50259 6.83444L2.40795 7.21493L2.65564 6.9798L2.90342 7.21493L2.80878 6.83444L3.05647 6.59931H2.75028L2.65564 6.21893L2.561 6.59931H2.25481ZM3.97904 6.59931L4.22673 6.83444L4.13218 7.21493L4.37987 6.9798L4.62765 7.21493L4.53301 6.83444L4.78071 6.59931H4.47451L4.37987 6.21893L4.28523 6.59931H3.97904ZM5.70327 6.59931L5.95097 6.83444L5.85633 7.21493L6.10411 6.9798L6.3518 7.21493L6.25725 6.83444L6.50494 6.59931H6.19875L6.10411 6.21893L6.00947 6.59931H5.70327ZM7.42742 6.59931L7.6752 6.83444L7.58056 7.21493L7.82825 6.9798L8.07603 7.21493L7.98139 6.83444L8.22917 6.59931H7.92289L7.82825 6.21893L7.7337 6.59931H7.42742ZM9.15165 6.59931L9.39935 6.83444L9.30479 7.21493L9.55249 6.9798L9.80027 7.21493L9.70563 6.83444L9.95332 6.59931H9.64713L9.55249 6.21893L9.45785 6.59931H9.15165ZM0.509601 8.52157L0.757295 8.7567L0.662655 9.13719L0.910435 8.90206L1.15813 9.13719L1.06349 8.7567L1.31127 8.52157H1.00499L0.910435 8.14119L0.815795 8.52157H0.509601ZM2.23375 8.52157L2.48153 8.7567L2.38689 9.13719L2.63458 8.90206L2.88236 9.13719L2.78772 8.7567L3.03541 8.52157H2.72922L2.63458 8.14119L2.53994 8.52157H2.23375ZM3.95798 8.52157L4.20567 8.7567L4.11112 9.13719L4.35881 8.90206L4.60659 9.13719L4.51195 8.7567L4.75965 8.52157H4.45345L4.35881 8.14119L4.26417 8.52157H3.95798ZM5.68221 8.52157L5.92991 8.7567L5.83527 9.13719L6.08305 8.90206L6.33074 9.13719L6.23619 8.7567L6.48388 8.52157H6.17769L6.08305 8.14119L5.98841 8.52157H5.68221ZM7.40636 8.52157L7.65414 8.7567L7.5595 9.13719L7.80719 8.90206L8.05497 9.13719L7.96033 8.7567L8.20811 8.52157H7.90183L7.80719 8.14119L7.71264 8.52157H7.40636ZM9.13059 8.52157L9.37829 8.7567L9.28373 9.13719L9.53143 8.90206L9.77921 9.13719L9.68457 8.7567L9.93226 8.52157H9.62607L9.53143 8.14119L9.43679 8.52157H9.13059ZM1.37679 5.63987L1.62448 5.875L1.52993 6.25538L1.77762 6.02025L2.0254 6.25538L1.93076 5.875L2.17845 5.63987H1.87226L1.77762 5.25938L1.68298 5.63987H1.37679ZM3.10102 5.63987L3.34871 5.875L3.25407 6.25538L3.50185 6.02025L3.74955 6.25538L3.65499 5.875L3.90269 5.63987H3.59649L3.50185 5.25938L3.40721 5.63987H3.10102ZM4.82525 5.63987L5.07295 5.875L4.97831 6.25538L5.22609 6.02025L5.47378 6.25538L5.37914 5.875L5.62692 5.63987H5.32073L5.22609 5.25938L5.13145 5.63987H4.82525ZM6.5494 5.63987L6.79718 5.875L6.70254 6.25538L6.95023 6.02025L7.19801 6.25538L7.10337 5.875L7.35107 5.63987H7.04487L6.95023 5.25938L6.85559 5.63987H6.5494ZM8.27363 5.63987L8.52133 5.875L8.42669 6.25538L8.67447 6.02025L8.92216 6.25538L8.82761 5.875L9.0753 5.63987H8.76911L8.67447 5.25938L8.57983 5.63987H8.27363ZM1.37167 7.55908L1.61945 7.79421L1.52481 8.1747L1.77251 7.93957L2.02029 8.1747L1.92565 7.79421L2.17334 7.55908H1.86715L1.77251 7.1787L1.67787 7.55908H1.37167ZM3.09591 7.55908L3.3436 7.79421L3.24896 8.1747L3.49674 7.93957L3.74452 8.1747L3.64988 7.79421L3.89757 7.55908H3.59138L3.49674 7.1787L3.4021 7.55908H3.09591ZM4.82014 7.55908L5.06783 7.79421L4.97319 8.1747L5.22097 7.93957L5.46867 8.1747L5.37403 7.79421L5.62181 7.55908H5.31561L5.22097 7.1787L5.12633 7.55908H4.82014ZM6.54429 7.55908L6.79207 7.79421L6.69743 8.1747L6.94512 7.93957L7.1929 8.1747L7.09826 7.79421L7.34595 7.55908H7.03976L6.94512 7.1787L6.85048 7.55908H6.54429ZM8.26852 7.55908L8.51621 7.79421L8.42157 8.1747L8.66935 7.93957L8.91705 8.1747L8.82249 7.79421L9.07019 7.55908H8.76399L8.66935 7.1787L8.57471 7.55908H8.26852Z" fill="white"/>
</svg>
